<?xml version="1.0" encoding="utf-8"?>
<!-- Generator: Adobe Illustrator 25.4.1, SVG Export Plug-In . SVG Version: 6.00 Build 0)  -->
<svg version="1.1" id="Layer_1" xmlns="http://www.w3.org/2000/svg" xmlns:xlink="http://www.w3.org/1999/xlink" x="0px" y="0px"
	 viewBox="0 0 355 500" style="enable-background:new 0 0 355 500;" xml:space="preserve">
<style type="text/css">
	.st0{fill:#02C63B;stroke:#02C63B;stroke-miterlimit:10;}
</style>
<g id="Group_98" transform="translate(-2721.816 21.418)">
	<path id="Path_403" class="st0" d="M3020.8,33.9c-33.4-33.4-74.2-50.3-121.1-50.3c-48.2,0-88,16.5-121.9,50.3
		c-33.4,33.4-50.3,74.2-50.3,121.1l0,0h87.1l0,0c0-25.4,8.1-46.4,24.2-62.4c16.8-16.8,36.7-24.9,60.9-24.9
		c24.4,0,44.1,8.1,60.1,24.8l0.2,0.2c16.7,16,24.8,36.4,24.8,62.3c0,25.8-8.1,46.4-24.9,63.2c-15.6,15.6-35.1,23.6-58.1,24.1v84.1
		c45.8-0.5,85.9-17.1,119.1-49.6c33.9-33.9,50.3-73.7,50.3-121.9C3071.2,108.1,3054.2,67.3,3020.8,33.9z"/>
	<rect id="Rectangle_69" x="2805.6" y="322.2" class="st0" width="187.5" height="65.3"/>
	<rect id="Rectangle_70" x="2836.6" y="408.3" class="st0" width="125.5" height="65.3"/>
</g>
</svg>
