<?xml version="1.0" encoding="utf-8"?>
<!-- Generator: Adobe Illustrator 25.4.1, SVG Export Plug-In . SVG Version: 6.00 Build 0)  -->
<svg version="1.1" id="Layer_1" xmlns="http://www.w3.org/2000/svg" xmlns:xlink="http://www.w3.org/1999/xlink" x="0px" y="0px"
	 viewBox="0 0 500 500" style="enable-background:new 0 0 500 500;" xml:space="preserve">
<style type="text/css">
	.st0{fill:none;}
	.st1{fill:#26ED62;}
</style>
<circle class="st0" cx="250" cy="250" r="329"/>
<path class="st1" d="M423.2,76.8C377,30.5,315.4,5,250,5S123,30.5,76.8,76.8C30.5,123,5,184.6,5,250s25.5,127,71.8,173.2
	C123,469.5,184.6,495,250,495s127-25.5,173.2-71.8C469.5,377,495,315.4,495,250S469.5,123,423.2,76.8z M422.7,422.7
	c-46.1,46.1-107.5,71.5-172.7,71.5c-65.2,0-126.6-25.4-172.7-71.5C31.2,376.6,5.7,315.2,5.7,250c0-65.2,25.4-126.6,71.5-172.7
	C123.4,31.2,184.8,5.7,250,5.7c65.2,0,126.6,25.4,172.7,71.5c46.1,46.1,71.5,107.5,71.5,172.7C494.3,315.2,468.8,376.6,422.7,422.7z
	"/>
</svg>
