<?xml version="1.0" encoding="utf-8"?>
<!-- Generator: Adobe Illustrator 25.4.1, SVG Export Plug-In . SVG Version: 6.00 Build 0)  -->
<svg version="1.1" id="Layer_1" xmlns="http://www.w3.org/2000/svg" xmlns:xlink="http://www.w3.org/1999/xlink" x="0px" y="0px"
	 viewBox="0 0 500 500" style="enable-background:new 0 0 500 500;" xml:space="preserve">
<style type="text/css">
	.st0{fill:#26ED62;}
</style>
<g id="Group_76" transform="translate(-1188.906 -1173.953)">
	<g id="Group_68" transform="translate(1188.906 1251.953)">
		<path id="Path_396" class="st0" d="M5,417h129.8v-45.2H82.1l52.6-52.6l-31.9-31.9l-52.6,52.6v-52.6H5v84.6l0,0V417z"/>
	</g>
	<g id="Group_73" transform="translate(1188.906 1212.953)">
		<path id="Path_396-2" class="st0" d="M5,275.9h129.8v-45.2H82.1l52.6-52.6l-31.9-31.9l-52.6,52.6v-52.6H5v84.6l0,0V275.9z"/>
	</g>
	<g id="Group_69" transform="translate(1227.906 1251.953)">
		<path id="Path_396-3" class="st0" d="M146.1,417h129.8v-45.2h-52.6l52.6-52.6l-31.9-31.9l-52.6,52.6v-52.6h-45.2v84.6l0,0V417z"/>
	</g>
	<g id="Group_71" transform="translate(1227.906 1212.953)">
		<path id="Path_396-4" class="st0" d="M146.1,275.9h129.8v-45.2h-52.6l52.6-52.6l-31.9-31.9l-52.6,52.6v-52.6h-45.2v84.6l0,0V275.9
			z"/>
	</g>
	<g id="Group_74" transform="translate(1227.906 1173.953)">
		<path id="Path_396-5" class="st0" d="M146.1,134.8h129.8V89.6h-52.6l52.6-52.6L243.9,5l-52.6,52.6V5h-45.2v84.6l0,0V134.8z"/>
	</g>
	<g id="Group_72" transform="translate(1266.906 1212.953)">
		<path id="Path_396-6" class="st0" d="M287.2,275.9H417v-45.2h-52.6l52.6-52.6l-31.9-31.9l-52.6,52.6v-52.6h-45.2v84.6l0,0V275.9z"
			/>
	</g>
	<g id="Group_75" transform="translate(1266.906 1173.953)">
		<path id="Path_396-7" class="st0" d="M287.2,134.8H417V89.6h-52.6L417,36.9L385.1,5l-52.6,52.6V5h-45.2v84.6l0,0V134.8z"/>
	</g>
</g>
</svg>
