<?xml version="1.0" encoding="utf-8"?>
<!-- Generator: Adobe Illustrator 25.4.1, SVG Export Plug-In . SVG Version: 6.00 Build 0)  -->
<svg version="1.1" id="Layer_1" xmlns="http://www.w3.org/2000/svg" xmlns:xlink="http://www.w3.org/1999/xlink" x="0px" y="0px"
	 viewBox="0 0 500 178" style="enable-background:new 0 0 500 178;" xml:space="preserve">
<style type="text/css">
	.st0{fill:#FFFFFF;}
	.st1{fill:#26ED62;}
</style>
<g>
	<g>
		<g>
			<g>
				<g>
					<path class="st0" d="M406,133.2c-1.4-1.4-3.1-2.4-4.9-3c-1.8-0.6-3.7-1-5.7-1c-3.2,0-6,0.7-8.5,2.1c-0.9,0.5-1.6,1.1-2.3,1.7
						l-1.6-2.9h-8.7v42.1h10.4v-21.6c0-2.1,0.2-3.8,0.7-5.3c0.5-1.4,1.1-2.6,1.9-3.5c0.8-0.9,1.7-1.5,2.7-1.9
						c1.1-0.4,2.2-0.6,3.5-0.6c0.9,0,1.8,0.1,2.7,0.4c0.8,0.3,1.5,0.7,2.1,1.3c0.6,0.6,1.1,1.5,1.5,2.5c0.4,1.1,0.6,2.5,0.6,4.1
						v24.6h10.4v-26.6c0-2.8-0.4-5.2-1.2-7.3C408.5,136.3,407.4,134.6,406,133.2z"/>
					<path class="st0" d="M303.8,167.4c-0.1-1.1-0.1-2.4-0.1-3.7v-19.8c0-1.9-0.3-3.7-1-5.5c-0.7-1.8-1.8-3.4-3.2-4.7
						c-1.4-1.4-3.2-2.4-5.4-3.2c-2.1-0.8-4.7-1.2-7.6-1.2c0,0,0,0,0,0l0,0h-15v9.2h15.3c1.2,0,2.3,0.2,3.2,0.6
						c0.9,0.4,1.6,0.9,2.2,1.5c0.6,0.6,1,1.3,1.3,2.1c0.3,0.8,0.4,1.6,0.4,2.4h-3.6c-2.9,0-5.7,0.2-8.3,0.7c-2.7,0.5-5,1.3-7.1,2.5
						c-2.1,1.2-3.8,2.8-5,4.7c-1.2,2-1.9,4.4-1.9,7.2c0,2.2,0.4,4.1,1.2,5.7c0.8,1.7,1.9,3.1,3.2,4.2c1.3,1.1,2.9,2,4.7,2.5
						c1.7,0.5,3.6,0.8,5.5,0.8c3.1,0,5.8-0.6,8.2-1.7c1.3-0.6,2.4-1.4,3.5-2.5c0,0.6,1.9,3.2,1.9,3.2h8l-0.2-1.8
						C303.9,169.5,303.9,168.5,303.8,167.4z M293.8,154.5c0,1.2-0.2,2.3-0.5,3.5c-0.3,1.1-0.8,2.2-1.5,3.1c-0.7,0.9-1.6,1.6-2.7,2.2
						c-1.1,0.6-2.6,0.9-4.2,0.9c-2.1,0-3.8-0.4-5-1.2c-1-0.7-1.4-1.8-1.4-3.5c0-1.1,0.3-2,0.9-2.6c0.7-0.8,1.7-1.4,2.9-1.9
						c1.3-0.5,2.8-0.8,4.4-1c1.7-0.2,3.4-0.3,5-0.3h2.1V154.5z"/>
					<path class="st0" d="M363,136.4c-1.6-2.1-3.7-3.9-6.2-5.2c-2.5-1.3-5.6-2-9.2-2c-3,0-5.8,0.6-8.4,1.7c-2.6,1.1-4.8,2.7-6.7,4.7
						c-1.8,2-3.3,4.3-4.4,7c-1,2.7-1.6,5.6-1.6,8.7c0,3.1,0.5,6,1.4,8.6c1,2.7,2.4,5,4.2,7c1.8,2,4,3.6,6.6,4.7
						c2.6,1.1,5.5,1.7,8.7,1.7c7.6,0,13.6-2.9,17.9-8.6l-8-6.3c-1.2,1.6-2.6,2.9-4.1,3.9c-1.4,0.9-3,1.3-4.9,1.3
						c-1.4,0-2.8-0.2-4.2-0.7c-1.3-0.5-2.5-1.1-3.5-2c-1-0.8-1.8-1.9-2.4-3.1c-0.4-0.7-0.6-1.4-0.7-2.2h5.7l0,0h24.1v-4.3
						c0-2.6-0.4-5.3-1-7.8C365.8,140.9,364.6,138.5,363,136.4z M342.5,146.5h-0.8h-1.5h-2.6c0.1-0.6,0.3-1.1,0.5-1.7
						c0.5-1.2,1.2-2.2,2-3.2c0.9-0.9,1.9-1.7,3.2-2.3c1.2-0.6,2.6-0.9,4.1-0.9c1.6,0,2.9,0.2,4,0.7c1.1,0.5,2,1.1,2.8,2
						c0.7,0.8,1.3,1.8,1.7,3c0.2,0.7,0.4,1.5,0.5,2.4H342.5z"/>
					<path class="st0" d="M258.3,163c-0.8,0.1-1.6,0.2-2.3,0.2c-1.3,0-1.9-0.3-2.1-0.5c-0.5-0.3-0.8-0.8-1-1.3
						c-0.3-0.7-0.4-1.5-0.5-2.3c-0.1-1-0.1-2.1-0.1-3.2v-16h10.2v-9.7h-10.2v-15.6h-10.4v15.6h-8.2v9.7h8.2v18.6
						c0,1.6,0.1,3.3,0.2,4.9c0.1,1.8,0.6,3.4,1.5,4.9c0.9,1.5,2.2,2.8,4,3.7c1.8,0.9,4.1,1.4,7.1,1.4c0.8,0,1.9-0.1,3.3-0.3
						c1.6-0.2,2.8-0.6,3.9-1.2l0.8-0.5v-10.5l-2.5,1.5C259.7,162.6,259,162.8,258.3,163z"/>
					<rect x="310.8" y="114.7" class="st0" width="10.4" height="57.8"/>
					<path class="st0" d="M441.8,163c-0.8,0.1-1.6,0.2-2.3,0.2c-1.3,0-1.9-0.3-2.1-0.5c-0.5-0.3-0.8-0.8-1-1.3
						c-0.3-0.7-0.4-1.5-0.5-2.3c-0.1-1-0.1-2.1-0.1-3.2v-16h10.2v-9.7h-10.2v-15.6h-10.4v15.6h-8.2v9.7h8.2v18.6
						c0,1.6,0.1,3.3,0.2,4.9c0.1,1.8,0.6,3.4,1.5,4.9c0.9,1.5,2.2,2.8,4,3.7c1.8,0.9,4.1,1.4,7.1,1.4c0.8,0,1.9-0.1,3.3-0.3
						c1.6-0.2,2.8-0.6,3.9-1.2l0.8-0.5v-10.5l-2.5,1.5C443.1,162.6,442.5,162.8,441.8,163z"/>
				</g>
				<path class="st0" d="M488.5,135.6c-4.3-4.3-9.5-6.5-15.6-6.5c-6.2,0-11.3,2.1-15.7,6.5c-4.3,4.3-6.5,9.5-6.5,15.6
					c0,6.2,2.1,11.3,6.5,15.7c4.4,4.3,9.5,6.4,15.7,6.4c6,0,11.2-2.1,15.6-6.4c4.4-4.4,6.5-9.5,6.5-15.7
					C495,145.1,492.8,139.8,488.5,135.6z M483.9,151.1c0,3.3-1,6-3.2,8.1l0,0c-2.1,2.1-4.7,3.1-7.7,3.1c-3.1,0-5.6-1-7.8-3.1
					c-2.1-2.2-3.1-4.8-3.1-8.1c0-3.3,1-6,3.1-8c2.2-2.2,4.7-3.2,7.8-3.2c3.1,0,5.7,1,7.7,3.2l0,0
					C482.9,145.2,483.9,147.8,483.9,151.1z"/>
			</g>
			<g>
				<g>
					<path class="st0" d="M158.1,172v-42.1h8.7l1.6,2.9c0.7-0.6,1.4-1.2,2.2-1.7c1.1-0.7,2.3-1.2,3.6-1.6c1.3-0.4,2.6-0.6,4-0.6
						c1.3,0,2.6,0.2,3.7,0.6l1.2,0.4l-0.4,11.3l-2-0.6c-0.5-0.1-1.1-0.3-1.6-0.4c-0.5-0.1-1-0.1-1.4-0.1c-3,0-5.2,0.8-6.8,2.5
						c-1.5,1.7-2.3,4.5-2.3,8.3V172H158.1z"/>
					<path class="st0" d="M129.8,173c-2,0-4-0.3-5.8-1c-1.9-0.7-3.5-1.7-4.9-3c-1.4-1.4-2.5-3.1-3.3-5.2c-0.8-2.1-1.2-4.5-1.2-7.3
						v-26.6H125v24.6c0,1.6,0.2,3,0.6,4.1c0.4,1.1,0.9,1.9,1.5,2.5c0.6,0.6,1.3,1.1,2.1,1.3c0.8,0.3,1.7,0.4,2.7,0.4
						c1.3,0,2.4-0.2,3.5-0.6c1-0.4,1.9-1,2.7-1.9c0.8-0.9,1.4-2.1,1.9-3.5c0.5-1.5,0.7-3.3,0.7-5.3v-21.6H151V172h-8.7l-1.6-2.8
						c-0.7,0.6-1.5,1.2-2.3,1.7C135.8,172.3,133,173,129.8,173z"/>
					<path class="st0" d="M50.7,173c-2,0-4-0.3-5.8-1c-1.9-0.7-3.5-1.7-4.9-3c-1.4-1.4-2.5-3.1-3.3-5.2c-0.8-2.1-1.2-4.5-1.2-7.3
						v-26.6h10.4v24.6c0,1.6,0.2,3,0.6,4.1c0.4,1.1,0.9,1.9,1.5,2.5c0.6,0.6,1.3,1.1,2.1,1.3c0.8,0.3,1.7,0.4,2.7,0.4
						c1.3,0,2.4-0.2,3.5-0.6c1-0.4,1.9-1,2.7-1.9c0.8-0.9,1.4-2.1,1.9-3.5c0.5-1.5,0.7-3.3,0.7-5.3v-21.6h10.4V172h-8.7l-1.6-2.8
						c-0.7,0.6-1.5,1.2-2.3,1.7C56.7,172.3,53.9,173,50.7,173z"/>
					<path class="st0" d="M20.9,126.3L20.9,126.3c0.1-0.5,0.2-0.9,0.4-1.3c0.1-0.2,0.3-0.4,0.5-0.5c0.1,0,0.2-0.1,0.6-0.2h5.1v-10.1
						h-4.7c-4.5,0-7.8,1.4-9.8,4c-1.9,2.5-2.8,6-2.8,10.7v4.5H5v10h5.1v28.8h10.6v-28.8h6.8v-10h-6.7v-4.7
						C20.7,127.9,20.8,127.1,20.9,126.3z"/>
					<path class="st0" d="M103.1,162.6c-0.8,0.1-1.6,0.2-2.3,0.2c-1.3,0-1.9-0.3-2.1-0.5c-0.5-0.3-0.8-0.8-1-1.3
						c-0.3-0.7-0.4-1.5-0.5-2.3c-0.1-1-0.1-2.1-0.1-3.2v-16h10.2v-9.7H97.1v-15.5H86.7v15.5h-8.2v9.7h8.2v18.6
						c0,1.6,0.1,3.3,0.2,4.9c0.1,1.8,0.6,3.4,1.5,4.9c0.9,1.5,2.2,2.8,4,3.7c1.8,0.9,4.1,1.4,7.1,1.4c0.8,0,1.9-0.1,3.3-0.3
						c1.6-0.2,2.8-0.6,3.9-1.2l0.8-0.5v-10.5l-2.5,1.5C104.4,162.3,103.8,162.5,103.1,162.6z"/>
				</g>
				<path class="st0" d="M222.9,134.9c-4.3-4.3-9.5-6.5-15.6-6.5c-6.2,0-11.3,2.1-15.7,6.5c-4.3,4.3-6.5,9.5-6.5,15.6
					c0,6.2,2.1,11.3,6.5,15.7c4.4,4.3,9.5,6.4,15.7,6.4c6,0,11.2-2.1,15.6-6.4c4.4-4.4,6.5-9.5,6.5-15.7
					C229.4,144.5,227.2,139.2,222.9,134.9z M218.3,150.5c0,3.3-1,6-3.2,8.1l0,0c-2.1,2.1-4.7,3.1-7.7,3.1c-3.1,0-5.6-1-7.8-3.1
					c-2.1-2.2-3.1-4.8-3.1-8.1c0-3.3,1-6,3.1-8c2.2-2.2,4.7-3.2,7.8-3.2c3.1,0,5.7,1,7.7,3.2l0,0
					C217.3,144.5,218.3,147.2,218.3,150.5z"/>
			</g>
		</g>
		<g>
			<g>
				<path class="st1" d="M457.7,127.1c-0.9,0-1.7-0.2-2.5-0.5c-0.7-0.3-1.4-0.7-1.9-1.3c-0.5-0.6-1-1.2-1.3-2
					c-0.3-0.8-0.4-1.6-0.4-2.5c0-0.9,0.1-1.8,0.4-2.5c0.3-0.8,0.7-1.5,1.2-2c0.5-0.6,1.2-1,1.9-1.3c0.7-0.3,1.6-0.5,2.5-0.5
					c0.8,0,1.7,0.2,2.4,0.5c0.8,0.3,1.5,0.8,2,1.5l0.3,0.3l-2.2,2.1l-0.3-0.4c-0.3-0.4-0.7-0.6-1.1-0.8c-0.3-0.2-0.8-0.3-1.3-0.3
					c-0.5,0-0.9,0.1-1.2,0.3c-0.3,0.2-0.6,0.4-0.9,0.7c-0.2,0.3-0.4,0.7-0.6,1.1c-0.1,0.4-0.2,0.9-0.2,1.4c0,0.5,0.1,0.9,0.2,1.3
					c0.1,0.4,0.4,0.8,0.6,1.1c0.3,0.3,0.6,0.5,0.9,0.7c0.4,0.2,0.8,0.3,1.2,0.3c0.5,0,0.9-0.1,1.3-0.3c0.4-0.2,0.7-0.5,1-0.8
					l0.3-0.4l2.1,2.2l-0.3,0.3c-0.6,0.7-1.3,1.2-2,1.5C459.3,126.9,458.5,127.1,457.7,127.1z"/>
				<path class="st1" d="M492,126.8v-6.7c0-0.4,0-0.8-0.1-1.2c0-0.3-0.1-0.6-0.3-0.9c-0.1-0.2-0.3-0.4-0.5-0.5
					c-0.2-0.1-0.5-0.2-1-0.2c-0.8,0-1.4,0.2-1.7,0.7c-0.4,0.5-0.6,1.3-0.6,2.2v6.6h-3v-6.3c0-0.5,0-1-0.1-1.4c0-0.4-0.1-0.7-0.3-1
					c-0.1-0.2-0.3-0.4-0.5-0.6c-0.2-0.1-0.5-0.2-0.9-0.2c-0.3,0-0.6,0.1-0.9,0.2c-0.3,0.1-0.5,0.3-0.7,0.5c-0.2,0.3-0.4,0.6-0.5,1
					c-0.1,0.4-0.2,0.9-0.2,1.5v6.3h-3v-12.1h2.4l0.5,0.9c0.1-0.1,0.2-0.2,0.4-0.3c0.3-0.2,0.7-0.4,1.2-0.6c0.5-0.2,1-0.3,1.5-0.3
					c0.9,0,1.7,0.2,2.3,0.6c0.4,0.3,0.8,0.6,1.1,1.1c0.3-0.4,0.8-0.8,1.2-1.1c0.7-0.4,1.4-0.6,2.2-0.6c0.9,0,1.7,0.2,2.3,0.5
					c0.6,0.3,1.1,0.7,1.4,1.3c0.3,0.5,0.6,1.1,0.7,1.7c0.1,0.6,0.2,1.3,0.2,1.9v7H492z"/>
				<path class="st1" d="M470.2,127.1c-0.9,0-1.7-0.2-2.4-0.5c-0.7-0.3-1.4-0.8-2-1.4c-0.6-0.6-1-1.2-1.3-2
					c-0.3-0.8-0.5-1.6-0.5-2.5c0-0.9,0.2-1.7,0.5-2.5c0.3-0.8,0.8-1.4,1.3-2c0.6-0.6,1.2-1,2-1.4c0.8-0.3,1.6-0.5,2.4-0.5
					c0.9,0,1.7,0.2,2.4,0.5c0.7,0.3,1.4,0.8,2,1.4c0.6,0.6,1,1.3,1.3,2c0.3,0.8,0.5,1.6,0.5,2.5c0,0.9-0.2,1.7-0.5,2.5
					c-0.3,0.8-0.8,1.4-1.3,2c-0.6,0.6-1.2,1-2,1.4C471.8,126.9,471,127.1,470.2,127.1z M470.2,117.3c-0.5,0-0.9,0.1-1.3,0.3
					c-0.4,0.2-0.7,0.4-1,0.7c-0.3,0.3-0.5,0.6-0.6,1.1c-0.1,0.4-0.2,0.9-0.2,1.4c0,0.5,0.1,1,0.2,1.4c0.1,0.4,0.3,0.8,0.6,1.1
					c0.3,0.3,0.6,0.5,1,0.7c0.4,0.2,0.8,0.3,1.3,0.3c0.5,0,0.9-0.1,1.3-0.3c0.4-0.2,0.7-0.4,1-0.7c0.3-0.3,0.5-0.6,0.6-1.1
					c0.1-0.4,0.2-0.9,0.2-1.4c0-0.5-0.1-1-0.2-1.4c-0.1-0.4-0.3-0.8-0.6-1.1c-0.3-0.3-0.6-0.5-1-0.7
					C471.1,117.4,470.6,117.3,470.2,117.3z"/>
			</g>
			<rect x="446.4" y="122.9" class="st1" width="3.9" height="3.9"/>
		</g>
	</g>
	<g>
		<g>
			<polygon class="st1" points="251.4,47.8 251.4,47.8 251.4,47.8 266.4,47.8 266.4,47.8 294.6,47.8 294.6,32.8 277.1,32.8 
				294.6,15.3 284,4.6 266.4,22.2 266.4,4.6 251.4,4.6 251.4,32.8 251.4,32.8 			"/>
		</g>
		<path class="st0" d="M216,83.8c7.7,7.7,17.1,11.6,27.9,11.6c11.1,0,20.3-3.8,28.1-11.6c7.7-7.7,11.6-17.1,11.6-27.9c0,0,0,0,0,0
			l-20.1,0c0,0,0,0,0,0c0,5.9-1.9,10.7-5.6,14.4c-3.9,3.9-8.5,5.7-14,5.7c-5.6,0-10.2-1.9-13.8-5.7l-0.1-0.1
			c-3.8-3.7-5.7-8.4-5.7-14.4c0-5.9,1.9-10.7,5.7-14.6c3.6-3.6,8.1-5.4,13.4-5.6V16.4c-10.6,0.1-19.8,3.9-27.4,11.4
			c-7.8,7.8-11.6,17-11.6,28.1C204.4,66.7,208.3,76.1,216,83.8z"/>
	</g>
</g>
</svg>
