<?xml version="1.0" encoding="utf-8"?>
<!-- Generator: Adobe Illustrator 25.4.1, SVG Export Plug-In . SVG Version: 6.00 Build 0)  -->
<svg version="1.1" id="Layer_1" xmlns="http://www.w3.org/2000/svg" xmlns:xlink="http://www.w3.org/1999/xlink" x="0px" y="0px"
	 viewBox="0 0 500 178" style="enable-background:new 0 0 500 178;" xml:space="preserve">
<style type="text/css">
	.st0{fill:#0F56F3;}
	.st1{fill:#26ED62;}
</style>
<g>
	<g>
		<g>
			<g>
				<path class="st0" d="M405.3,133.1c-1.4-1.4-3.1-2.4-4.9-3c-1.8-0.6-3.7-0.9-5.7-0.9c-3.2,0-6,0.7-8.4,2.1
					c-0.9,0.5-1.6,1.1-2.3,1.7l-1.6-2.8h-8.7v42H384v-21.5c0-2.1,0.2-3.8,0.7-5.3c0.5-1.4,1.1-2.6,1.9-3.5c0.8-0.9,1.6-1.5,2.7-1.9
					c1.1-0.4,2.2-0.6,3.5-0.6c0.9,0,1.8,0.1,2.6,0.4c0.8,0.3,1.5,0.7,2.1,1.3c0.6,0.6,1.1,1.5,1.5,2.5c0.4,1.1,0.6,2.5,0.6,4V172
					h10.3v-26.5c0-2.7-0.4-5.2-1.2-7.2C407.9,136.2,406.7,134.4,405.3,133.1z"/>
				<path class="st0" d="M303.6,167c-0.1-1.1-0.1-2.3-0.1-3.7v-19.7c0-1.9-0.3-3.7-1-5.4c-0.7-1.8-1.8-3.4-3.2-4.7
					c-1.4-1.3-3.2-2.4-5.4-3.2c-2.1-0.8-4.7-1.2-7.6-1.2c0,0,0,0,0,0l0,0h-15v9.2h15.2c1.2,0,2.3,0.2,3.1,0.6
					c0.9,0.4,1.6,0.9,2.2,1.5c0.6,0.6,1,1.3,1.3,2.1c0.3,0.8,0.4,1.6,0.4,2.4h-3.5c-2.9,0-5.7,0.2-8.3,0.7c-2.7,0.5-5,1.3-7,2.5
					c-2.1,1.2-3.8,2.8-5,4.7c-1.2,1.9-1.9,4.4-1.9,7.2c0,2.1,0.4,4.1,1.2,5.7c0.8,1.7,1.9,3.1,3.2,4.2c1.3,1.1,2.9,2,4.7,2.5
					c1.7,0.5,3.6,0.8,5.4,0.8c3.1,0,5.8-0.6,8.2-1.7c1.3-0.6,2.4-1.4,3.5-2.5c0,0.6,1.9,3.2,1.9,3.2h8l-0.2-1.8
					C303.7,169.2,303.6,168.2,303.6,167z M293.6,154.2c0,1.1-0.2,2.3-0.5,3.5c-0.3,1.1-0.8,2.2-1.5,3.1c-0.7,0.9-1.6,1.6-2.7,2.2
					c-1.1,0.6-2.5,0.8-4.2,0.8c-2.1,0-3.8-0.4-4.9-1.2c-1-0.7-1.4-1.8-1.4-3.5c0-1.1,0.3-2,0.9-2.6c0.7-0.8,1.7-1.4,2.9-1.9
					c1.3-0.5,2.8-0.8,4.4-1c1.7-0.2,3.4-0.3,5-0.3h2.1V154.2z"/>
				<path class="st0" d="M362.5,136.2c-1.6-2.1-3.7-3.8-6.2-5.2c-2.5-1.3-5.6-2-9.1-2c-3,0-5.8,0.6-8.4,1.7
					c-2.5,1.1-4.8,2.7-6.6,4.7c-1.8,2-3.3,4.3-4.3,7c-1,2.7-1.6,5.6-1.6,8.6c0,3.1,0.5,6,1.4,8.6c1,2.7,2.3,5,4.1,7
					c1.8,2,4,3.6,6.6,4.7c2.6,1.1,5.5,1.7,8.6,1.7c7.6,0,13.6-2.9,17.8-8.6l-7.9-6.2c-1.2,1.6-2.6,2.9-4.1,3.8
					c-1.4,0.9-2.9,1.3-4.8,1.3c-1.4,0-2.8-0.2-4.2-0.7c-1.3-0.5-2.5-1.1-3.5-2c-1-0.8-1.8-1.9-2.4-3c-0.4-0.7-0.6-1.4-0.7-2.2h5.7
					l0,0h24v-4.2c0-2.6-0.3-5.3-1-7.8C365.3,140.7,364.1,138.3,362.5,136.2z M342.1,146.2h-0.8h-1.4h-2.6c0.1-0.6,0.3-1.1,0.5-1.7
					c0.5-1.1,1.2-2.2,2-3.2c0.8-0.9,1.9-1.7,3.1-2.3c1.2-0.6,2.6-0.9,4.1-0.9c1.5,0,2.9,0.2,4,0.7c1.1,0.5,2,1.1,2.8,1.9
					c0.7,0.8,1.3,1.8,1.7,3c0.2,0.7,0.4,1.5,0.5,2.3H342.1z"/>
				<path class="st0" d="M258.3,162.7c-0.8,0.1-1.6,0.2-2.3,0.2c-1.2,0-1.8-0.2-2.1-0.5c-0.5-0.3-0.8-0.8-1-1.3
					c-0.3-0.7-0.4-1.4-0.5-2.3c-0.1-1-0.1-2.1-0.1-3.1v-15.9h10.1v-9.6h-10.1v-15.5H242v15.5h-8.2v9.6h8.2v18.5
					c0,1.6,0.1,3.2,0.2,4.8c0.1,1.8,0.6,3.4,1.5,4.9c0.9,1.5,2.2,2.8,4,3.7c1.8,0.9,4.1,1.4,7.1,1.4c0.8,0,1.9-0.1,3.3-0.3
					c1.6-0.2,2.8-0.6,3.9-1.2l0.8-0.5v-10.5l-2.5,1.5C259.6,162.3,259,162.5,258.3,162.7z"/>
				<rect x="310.6" y="114.6" class="st0" width="10.3" height="57.5"/>
				<path class="st0" d="M441,162.7c-0.8,0.1-1.6,0.2-2.3,0.2c-1.2,0-1.8-0.2-2.1-0.5c-0.5-0.3-0.8-0.8-1-1.3
					c-0.3-0.7-0.4-1.4-0.5-2.3c-0.1-1-0.1-2.1-0.1-3.1v-15.9h10.1v-9.6H435v-15.5h-10.3v15.5h-8.2v9.6h8.2v18.5
					c0,1.6,0.1,3.2,0.2,4.8c0.1,1.8,0.6,3.4,1.5,4.9c0.9,1.5,2.2,2.8,4,3.7c1.8,0.9,4.1,1.4,7.1,1.4c0.8,0,1.9-0.1,3.3-0.3
					c1.6-0.2,2.8-0.6,3.9-1.2l0.8-0.5v-10.5l-2.5,1.5C442.3,162.3,441.7,162.5,441,162.7z"/>
			</g>
			<path class="st0" d="M487.5,135.4c-4.3-4.3-9.5-6.4-15.5-6.4c-6.2,0-11.3,2.1-15.6,6.4c-4.3,4.3-6.4,9.5-6.4,15.5
				c0,6.2,2.1,11.3,6.4,15.6c4.4,4.3,9.5,6.3,15.6,6.3c6,0,11.2-2.1,15.5-6.3c4.3-4.3,6.4-9.4,6.4-15.6
				C493.9,144.9,491.8,139.6,487.5,135.4z M482.9,150.9c0,3.3-1,5.9-3.2,8.1l0,0c-2,2.1-4.6,3.1-7.7,3.1c-3.1,0-5.6-1-7.8-3.1
				c-2.1-2.2-3.1-4.8-3.1-8.1c0-3.3,1-5.9,3.1-8c2.1-2.1,4.7-3.2,7.8-3.2c3.1,0,5.6,1,7.7,3.2l0,0
				C481.8,144.9,482.9,147.5,482.9,150.9z"/>
		</g>
		<g>
			<g>
				<path class="st0" d="M158.5,171.7v-42h8.7l1.6,2.9c0.7-0.6,1.4-1.2,2.2-1.6c1.1-0.7,2.3-1.2,3.6-1.6c1.3-0.4,2.6-0.6,3.9-0.6
					c1.3,0,2.6,0.2,3.7,0.6l1.1,0.4l-0.4,11.2l-2-0.6c-0.5-0.1-1.1-0.3-1.6-0.4c-0.5-0.1-1-0.1-1.4-0.1c-3,0-5.2,0.8-6.7,2.5
					c-1.5,1.7-2.3,4.5-2.3,8.3v21.1H158.5z"/>
				<path class="st0" d="M130.3,172.7c-2,0-3.9-0.3-5.7-0.9c-1.8-0.7-3.5-1.7-4.9-3c-1.4-1.4-2.5-3.1-3.3-5.2
					c-0.8-2.1-1.2-4.5-1.2-7.2v-26.5h10.3v24.5c0,1.6,0.2,3,0.6,4c0.4,1.1,0.9,1.9,1.5,2.5c0.6,0.6,1.3,1.1,2.1,1.3
					c0.8,0.3,1.7,0.4,2.6,0.4c1.3,0,2.4-0.2,3.5-0.6c1-0.4,1.9-1,2.7-1.9c0.8-0.9,1.4-2,1.9-3.5c0.5-1.5,0.7-3.2,0.7-5.3v-21.5h10.3
					v42h-8.7l-1.6-2.8c-0.7,0.6-1.5,1.2-2.3,1.7C136.3,172,133.5,172.7,130.3,172.7z"/>
				<path class="st0" d="M51.6,172.7c-2,0-3.9-0.3-5.7-0.9c-1.8-0.7-3.5-1.7-4.9-3c-1.4-1.4-2.5-3.1-3.3-5.2
					c-0.8-2.1-1.2-4.5-1.2-7.2v-26.5h10.3v24.5c0,1.6,0.2,3,0.6,4c0.4,1.1,0.9,1.9,1.5,2.5c0.6,0.6,1.3,1.1,2.1,1.3
					c0.8,0.3,1.7,0.4,2.6,0.4c1.3,0,2.4-0.2,3.5-0.6c1-0.4,1.9-1,2.7-1.9c0.8-0.9,1.4-2,1.9-3.5c0.5-1.5,0.7-3.2,0.7-5.3v-21.5h10.3
					v42H64l-1.6-2.8c-0.7,0.6-1.5,1.2-2.3,1.7C57.6,172,54.7,172.7,51.6,172.7z"/>
				<path class="st0" d="M21.9,126.2L21.9,126.2c0.1-0.5,0.2-0.9,0.4-1.2c0.1-0.2,0.3-0.4,0.5-0.5c0.1,0,0.2-0.1,0.6-0.2h5.1v-10
					h-4.7c-4.5,0-7.8,1.3-9.8,4c-1.9,2.5-2.8,6-2.8,10.7v4.5H6.1v10h5.1v28.7h10.5v-28.7h6.8v-10h-6.7v-4.7
					C21.7,127.8,21.8,126.9,21.9,126.2z"/>
				<path class="st0" d="M103.8,162.3c-0.8,0.1-1.6,0.2-2.3,0.2c-1.2,0-1.8-0.2-2.1-0.5c-0.5-0.3-0.8-0.8-1-1.3
					c-0.3-0.7-0.4-1.4-0.5-2.3c-0.1-1-0.1-2.1-0.1-3.1v-15.9h10.1v-9.6H97.8v-15.5H87.4v15.5h-8.2v9.6h8.2v18.5
					c0,1.6,0.1,3.2,0.2,4.8c0.1,1.8,0.6,3.4,1.5,4.9c0.9,1.5,2.2,2.8,4,3.7c1.8,0.9,4.1,1.4,7.1,1.4c0.8,0,1.9-0.1,3.3-0.3
					c1.6-0.2,2.8-0.6,3.9-1.2l0.8-0.5v-10.5l-2.5,1.5C105.1,162,104.5,162.2,103.8,162.3z"/>
			</g>
			<path class="st0" d="M223,134.7c-4.3-4.3-9.5-6.4-15.5-6.4c-6.2,0-11.3,2.1-15.6,6.4c-4.3,4.3-6.4,9.5-6.4,15.5
				c0,6.2,2.1,11.3,6.4,15.6c4.4,4.3,9.5,6.3,15.6,6.3c6,0,11.2-2.1,15.5-6.3c4.3-4.3,6.4-9.4,6.4-15.6
				C229.5,144.2,227.3,139,223,134.7z M218.4,150.2c0,3.3-1,5.9-3.2,8.1l0,0c-2,2.1-4.6,3.1-7.7,3.1c-3.1,0-5.6-1-7.8-3.1
				c-2.1-2.2-3.1-4.8-3.1-8.1c0-3.3,1-5.9,3.1-8c2.1-2.1,4.7-3.2,7.8-3.2c3.1,0,5.6,1,7.7,3.2l0,0
				C217.4,144.3,218.4,146.9,218.4,150.2z"/>
		</g>
	</g>
	<g>
		<g>
			<path class="st1" d="M456.8,126.9c-0.9,0-1.7-0.2-2.4-0.5c-0.7-0.3-1.4-0.7-1.9-1.3c-0.5-0.6-1-1.2-1.3-2
				c-0.3-0.8-0.4-1.6-0.4-2.5c0-0.9,0.1-1.8,0.4-2.5c0.3-0.8,0.7-1.5,1.2-2c0.5-0.6,1.2-1,1.9-1.3c0.7-0.3,1.6-0.5,2.5-0.5
				c0.8,0,1.7,0.2,2.4,0.5c0.8,0.3,1.5,0.8,2,1.4l0.3,0.3l-2.2,2.1l-0.3-0.3c-0.3-0.4-0.7-0.6-1.1-0.8c-0.3-0.2-0.8-0.3-1.3-0.3
				c-0.5,0-0.9,0.1-1.2,0.3c-0.3,0.2-0.6,0.4-0.9,0.7c-0.2,0.3-0.4,0.7-0.6,1.1c-0.1,0.4-0.2,0.9-0.2,1.4c0,0.5,0.1,0.9,0.2,1.3
				c0.1,0.4,0.4,0.8,0.6,1.1c0.3,0.3,0.6,0.5,0.9,0.7c0.4,0.2,0.8,0.2,1.2,0.2c0.5,0,0.9-0.1,1.3-0.3c0.4-0.2,0.7-0.5,1-0.8l0.3-0.4
				l2.1,2.2l-0.3,0.3c-0.6,0.7-1.3,1.2-2,1.4C458.4,126.8,457.6,126.9,456.8,126.9z"/>
			<path class="st1" d="M491,126.7V120c0-0.4,0-0.8-0.1-1.2c0-0.3-0.1-0.6-0.3-0.9c-0.1-0.2-0.3-0.4-0.5-0.5c-0.2-0.1-0.5-0.2-1-0.2
				c-0.8,0-1.4,0.2-1.7,0.7c-0.4,0.5-0.6,1.3-0.6,2.2v6.5h-3v-6.3c0-0.5,0-1-0.1-1.4c0-0.4-0.1-0.7-0.3-1c-0.1-0.2-0.3-0.4-0.5-0.6
				c-0.2-0.1-0.5-0.2-0.9-0.2c-0.3,0-0.6,0.1-0.9,0.2c-0.3,0.1-0.5,0.3-0.7,0.5c-0.2,0.2-0.4,0.6-0.5,1c-0.1,0.4-0.2,0.9-0.2,1.5
				v6.2h-3v-12.1h2.4l0.5,0.9c0.1-0.1,0.2-0.2,0.4-0.3c0.3-0.2,0.7-0.4,1.1-0.6c0.4-0.2,0.9-0.3,1.5-0.3c0.9,0,1.6,0.2,2.3,0.6
				c0.4,0.3,0.8,0.6,1.1,1c0.3-0.4,0.8-0.8,1.2-1.1c0.7-0.4,1.4-0.6,2.1-0.6c0.9,0,1.7,0.2,2.3,0.5c0.6,0.3,1.1,0.7,1.4,1.3
				c0.3,0.5,0.6,1.1,0.7,1.7c0.1,0.6,0.2,1.3,0.2,1.9v6.9H491z"/>
			<path class="st1" d="M469.2,126.9c-0.9,0-1.7-0.2-2.4-0.5c-0.7-0.3-1.4-0.8-2-1.3c-0.6-0.6-1-1.2-1.3-2c-0.3-0.8-0.5-1.6-0.5-2.5
				c0-0.9,0.2-1.7,0.5-2.5c0.3-0.8,0.8-1.4,1.3-2c0.6-0.6,1.2-1,2-1.4c0.7-0.3,1.6-0.5,2.4-0.5c0.9,0,1.7,0.2,2.4,0.5
				c0.7,0.3,1.4,0.8,2,1.4c0.6,0.6,1,1.2,1.3,2c0.3,0.8,0.5,1.6,0.5,2.5c0,0.9-0.2,1.7-0.5,2.5c-0.3,0.8-0.8,1.4-1.3,2
				c-0.6,0.6-1.2,1-2,1.3C470.9,126.8,470.1,126.9,469.2,126.9z M469.2,117.2c-0.5,0-0.9,0.1-1.3,0.3c-0.4,0.2-0.7,0.4-0.9,0.7
				c-0.3,0.3-0.5,0.6-0.6,1.1c-0.1,0.4-0.2,0.9-0.2,1.4c0,0.5,0.1,1,0.2,1.4c0.1,0.4,0.3,0.8,0.6,1.1c0.3,0.3,0.6,0.5,0.9,0.7
				c0.4,0.2,0.8,0.3,1.3,0.3c0.5,0,0.9-0.1,1.3-0.3c0.4-0.2,0.7-0.4,0.9-0.7c0.3-0.3,0.5-0.6,0.6-1.1c0.1-0.4,0.2-0.9,0.2-1.4
				c0-0.5-0.1-1-0.2-1.4c-0.1-0.4-0.3-0.8-0.6-1.1c-0.3-0.3-0.6-0.5-0.9-0.7C470.1,117.3,469.7,117.2,469.2,117.2z"/>
		</g>
		<rect x="445.6" y="122.7" class="st1" width="3.9" height="3.9"/>
	</g>
	<g>
		<g>
			<polygon class="st1" points="251.9,48 251.9,48 251.9,48 266.8,48 266.8,48 294.9,48 294.9,33 277.4,33 294.9,15.6 284.3,5 
				266.8,22.4 266.8,5 251.9,5 251.9,33 251.9,33 			"/>
		</g>
		<path class="st0" d="M216.6,83.8c7.7,7.7,17,11.5,27.8,11.5c11,0,20.2-3.8,28-11.5c7.7-7.7,11.5-17,11.5-27.8c0,0,0,0,0,0l-20,0
			c0,0,0,0,0,0c0,5.8-1.9,10.6-5.5,14.3c-3.8,3.8-8.4,5.7-14,5.7c-5.6,0-10.1-1.9-13.8-5.7l-0.1-0.1c-3.8-3.7-5.7-8.3-5.7-14.3
			c0-5.9,1.9-10.7,5.7-14.5c3.6-3.6,8.1-5.4,13.3-5.5V16.7c-10.5,0.1-19.7,3.9-27.3,11.4c-7.8,7.8-11.5,16.9-11.5,28
			C205.1,66.8,208.9,76.1,216.6,83.8z"/>
	</g>
</g>
</svg>
