<?xml version="1.0" encoding="utf-8"?>
<!-- Generator: Adobe Illustrator 25.4.1, SVG Export Plug-In . SVG Version: 6.00 Build 0)  -->
<svg version="1.1" id="Layer_1" xmlns="http://www.w3.org/2000/svg" xmlns:xlink="http://www.w3.org/1999/xlink" x="0px" y="0px"
	 viewBox="0 0 500 290" style="enable-background:new 0 0 500 290;" xml:space="preserve">
<style type="text/css">
	.st0{fill:#02C63B;}
	.st1{fill:#02C63B;stroke:#02C63B;stroke-miterlimit:10;}
</style>
<g>
	<g id="Group_89" transform="translate(0 0.855)">
		<path id="Path_398" class="st0" d="M46,242.9c27.2,27.2,60.5,41,98.8,41c39.3,0,71.8-13.4,99.4-41c27.2-27.2,41-60.5,41-98.7l0,0
			h-71l0,0c0,20.7-6.6,37.8-19.7,50.9c-13.7,13.7-29.9,20.3-49.7,20.3c-19.9,0-36-6.6-49-20.2l-0.2-0.2
			c-13.6-13-20.2-29.7-20.2-50.8c0-21,6.6-37.9,20.3-51.5c12.7-12.7,28.6-19.3,47.4-19.7V4.4c-37.4,0.4-70,14-97.1,40.4
			C18.4,72.4,5,104.9,5,144.1C5,182.4,18.8,215.7,46,242.9z"/>
	</g>
	<g id="Group_90" transform="translate(234.136 0.5)">
		<path id="Path_400" class="st1" d="M219.8,45.4c27.2,27.2,41,60.5,41,98.8c0,39.3-13.4,71.8-41,99.4c-27.2,27.2-60.5,41-98.7,41
			l0,0v-71l0,0c20.7,0,37.8-6.6,50.9-19.7c13.7-13.7,20.3-29.9,20.3-49.7c0-19.9-6.6-35.9-20.2-49l-0.2-0.2
			c-13-13.6-29.7-20.2-50.8-20.2c-21,0-37.9,6.6-51.5,20.3c-12.7,12.7-19.3,28.6-19.7,47.4h-68.6c0.4-37.4,14-70,40.4-97.1
			c27.6-27.6,60.1-41,99.4-41C159.4,4.4,192.6,18.2,219.8,45.4z"/>
	</g>
</g>
</svg>
