<?xml version="1.0" encoding="utf-8"?>
<!-- Generator: Adobe Illustrator 25.4.1, SVG Export Plug-In . SVG Version: 6.00 Build 0)  -->
<svg version="1.1" id="Layer_1" xmlns="http://www.w3.org/2000/svg" xmlns:xlink="http://www.w3.org/1999/xlink" x="0px" y="0px"
	 viewBox="0 0 500 500" style="enable-background:new 0 0 500 500;" xml:space="preserve">
<style type="text/css">
	.st0{fill:#105DEC;}
	.st1{fill-rule:evenodd;clip-rule:evenodd;fill:#26ED62;}
	.st2{fill-rule:evenodd;clip-rule:evenodd;fill:#FFFFFF;}
</style>
<g>
	<g transform="matrix(1, 0, 0, 1, 0, 0)">
		<path id="Rectangle_33-2" class="st0" d="M86.7,5h326.7C458.4,5,495,41.6,495,86.7v326.7c0,45.1-36.6,81.7-81.7,81.7H86.7
			C41.6,495,5,458.4,5,413.3V86.7C5,41.6,41.6,5,86.7,5z"/>
	</g>
	<g id="Group_78" transform="translate(-674.297 -2188.297)">
		<path id="magnifying_glass" class="st1" d="M1036.3,2511.2l-46.7-46.7c-3.3-3.4-8.7-3.5-12.1-0.3c-0.1,0.1-0.2,0.2-0.3,0.3
			l-4.4,4.4l-13.8-13.8c28-34.6,22.6-85.3-12-113.3c-14.4-11.7-32.4-18-50.9-17.9c-44.6-0.2-80.9,35.7-81.2,80.3
			c-0.2,44.6,35.7,80.9,80.3,81.2c18.6,0.1,36.7-6.2,51.1-17.9l13.8,13.8l-4.7,4.7c-1.7,1.6-2.7,3.8-2.6,6.2
			c-0.1,2.3,0.9,4.6,2.6,6.2l46.7,46.7c3.3,3.4,8.7,3.5,12.1,0.3c0.1-0.1,0.2-0.2,0.3-0.3l21.5-21.4c1.7-1.6,2.7-3.8,2.6-6.2
			C1038.7,2515.1,1037.9,2512.9,1036.3,2511.2z M831.9,2404.1c0-35,28.3-63.3,63.3-63.3s63.3,28.3,63.3,63.3
			c0,35-28.3,63.3-63.3,63.3c-34.9,0.1-63.2-28.2-63.3-63.1C831.9,2404.3,831.9,2404.2,831.9,2404.1z M975.3,2492.9l33.6,33.6
			l8.6-8.6l-33.6-33.6L975.3,2492.9z"/>
		<path id="magnifying_glass-2" class="st2" d="M1031.3,2516.2l-46.7-46.7c-3.3-3.4-8.7-3.5-12.1-0.3c-0.1,0.1-0.2,0.2-0.3,0.3
			l-4.4,4.4l-13.8-13.8c28-34.6,22.6-85.3-12-113.3c-14.4-11.7-32.4-18-50.9-17.9c-44.6-0.2-80.9,35.7-81.2,80.3
			s35.7,80.9,80.3,81.2c18.6,0.1,36.7-6.2,51.1-17.9l13.8,13.8l-4.7,4.7c-1.7,1.6-2.7,3.8-2.6,6.2c-0.1,2.3,0.9,4.6,2.6,6.2
			l46.7,46.7c3.3,3.4,8.7,3.5,12.1,0.3c0.1-0.1,0.2-0.2,0.3-0.3l21.5-21.4c1.7-1.6,2.7-3.8,2.6-6.2
			C1033.7,2520.1,1032.9,2517.9,1031.3,2516.2z M826.8,2409.1c0-35,28.3-63.3,63.3-63.3s63.3,28.3,63.3,63.3
			c0,35-28.3,63.3-63.3,63.3c-34.9,0.1-63.2-28.2-63.3-63.1C826.8,2409.3,826.8,2409.2,826.8,2409.1z M970.3,2497.9l33.6,33.6
			l8.6-8.6l-33.6-33.6L970.3,2497.9z"/>
	</g>
</g>
</svg>
