<?xml version="1.0" encoding="utf-8"?>
<!-- Generator: Adobe Illustrator 25.4.1, SVG Export Plug-In . SVG Version: 6.00 Build 0)  -->
<svg version="1.1" id="Layer_1" xmlns="http://www.w3.org/2000/svg" xmlns:xlink="http://www.w3.org/1999/xlink" x="0px" y="0px"
	 viewBox="0 0 300 300" style="enable-background:new 0 0 300 300;" xml:space="preserve">
<style type="text/css">
	.st0{fill:#26ED62;}
	.st1{fill:#0F56F3;}
</style>
<g id="Group_133" transform="translate(-455.32 -378.538)">
	<g id="Group_64" transform="translate(485.91 378.538)">
		<path id="Path_396" class="st0" d="M125.5,143h138.9V94.7h-56.3l56.3-56.3L230.2,4.2l-56.3,56.3V4.2h-48.4v90.5l0,0V143z"/>
	</g>
	<path id="Path_397" class="st1" d="M497.6,637.1c49.7,49.7,130.3,49.7,180,0c23.8-23.8,37.2-56.1,37.3-89.7h-64.5
		c0.6,17.2-5.8,33.9-17.9,46.2c-11.8,12.2-28.2,18.9-45.1,18.4c-16.8,0.5-33-6.1-44.5-18.4l-0.2-0.2c-12.4-12.1-19.1-28.9-18.4-46.2
		c-0.6-17.5,6-34.4,18.4-46.8c11.4-11.5,26.9-17.9,43-17.9v-62.3c-33.1,0-64.8,13.2-88.2,36.7C447.9,506.8,447.9,587.4,497.6,637.1
		C497.6,637.1,497.6,637.1,497.6,637.1L497.6,637.1z"/>
</g>
</svg>
